<svg width="87" height="86" viewBox="0 0 87 86" fill="none" xmlns="http://www.w3.org/2000/svg">
<path fill-rule="evenodd" clip-rule="evenodd" d="M43.5 32.8824C37.8472 32.8824 33.2647 37.4122 33.2647 43C33.2647 48.5879 37.8472 53.1177 43.5 53.1177C49.1528 53.1177 53.7353 48.5879 53.7353 43C53.7353 37.4122 49.1528 32.8824 43.5 32.8824ZM31.9853 43C31.9853 36.7137 37.1406 31.6177 43.5 31.6177C49.8594 31.6177 55.0147 36.7137 55.0147 43C55.0147 49.2863 49.8594 54.3824 43.5 54.3824C37.1406 54.3824 31.9853 49.2863 31.9853 43Z" fill="black"/>
<path fill-rule="evenodd" clip-rule="evenodd" d="M43.5001 4.21563C41.7469 4.21563 40.0655 4.90407 38.8259 6.12949C37.5862 7.35491 36.8898 9.01694 36.8898 10.7499V11.3591L36.8898 11.3616C36.8846 12.638 36.502 13.8851 35.789 14.9493C35.0761 16.0135 34.0639 16.8484 32.8771 17.3512C32.7974 17.3849 32.7117 17.4023 32.6251 17.4023H32.4664C31.2896 17.887 29.9951 18.0259 28.7388 17.8007C27.4371 17.5674 26.2359 16.9539 25.2902 16.0395L25.2852 16.0346L25.0677 15.8196C24.4538 15.2121 23.7245 14.7298 22.922 14.401C22.1196 14.0722 21.2594 13.9029 20.3907 13.9029C19.522 13.9029 18.6618 14.0722 17.8593 14.401C17.0569 14.7298 16.3278 15.2118 15.7139 15.8193L15.7134 15.8198C15.0988 16.4267 14.6112 17.1474 14.2786 17.9406C13.9459 18.7339 13.7747 19.5842 13.7747 20.4429C13.7747 21.3016 13.9459 22.1519 14.2786 22.9451C14.6112 23.7384 15.0988 24.459 15.7134 25.0659L15.9361 25.2861C16.8612 26.2209 17.4817 27.4083 17.7178 28.695C17.9526 29.9752 17.7961 31.2954 17.2684 32.487C16.8085 33.7116 15.9883 34.7723 14.9132 35.5324C13.8326 36.2964 12.5444 36.7214 11.2163 36.7521L11.2013 36.7523H10.8751C9.1219 36.7523 7.44054 37.4407 6.20087 38.6662C4.9612 39.8916 4.26476 41.5536 4.26476 43.2866C4.26476 45.0196 4.9612 46.6817 6.20087 47.9071C7.44054 49.1325 9.1219 49.8209 10.8751 49.8209H11.4939C12.7851 49.826 14.0466 50.2042 15.1232 50.909C16.1988 51.6131 17.0429 52.6126 17.5517 53.7844C18.0847 54.98 18.2436 56.3059 18.0078 57.5915C17.7717 58.8783 17.1512 60.0656 16.2261 61.0005L16.2212 61.0055L16.0036 61.2204C15.389 61.8273 14.9012 62.5482 14.5686 63.3414C14.2359 64.1347 14.0647 64.985 14.0647 65.8437C14.0647 66.7024 14.2359 67.5527 14.5686 68.346C14.9012 69.1392 15.3888 69.8599 16.0034 70.4667L16.0039 70.4672C16.6178 71.0748 17.3469 71.5567 18.1493 71.8856C18.9518 72.2144 19.812 72.3837 20.6807 72.3837C21.5494 72.3837 22.4095 72.2144 23.212 71.8856C24.0145 71.5567 24.7435 71.0748 25.3575 70.4672L25.5802 70.247C26.5259 69.3326 27.7271 68.7192 29.0288 68.4859C30.3239 68.2538 31.6594 68.4085 32.8648 68.9301C34.1037 69.3847 35.1768 70.1955 35.9457 71.2583C36.7186 72.3264 37.1485 73.5997 37.1796 74.9127L37.1798 74.9275V75.25C37.1798 76.983 37.8762 78.645 39.1159 79.8704C40.3555 81.0958 42.0369 81.7843 43.7901 81.7843C45.5432 81.7843 47.2246 81.0958 48.4642 79.8704C49.7039 78.645 50.4003 76.983 50.4003 75.25V74.6408L50.4003 74.6383C50.4055 73.3619 50.7881 72.1148 51.5011 71.0506C52.2133 69.9875 53.2243 69.1532 54.4096 68.6502C55.6192 68.1232 56.9606 67.9661 58.2613 68.1992C59.563 68.4325 60.7642 69.046 61.7099 69.9604L61.7149 69.9653L61.9324 70.1803C62.5463 70.7878 63.2756 71.2701 64.0781 71.5989C64.8806 71.9277 65.7407 72.097 66.6094 72.097C67.4781 72.097 68.3383 71.9277 69.1408 71.5989C69.9432 71.2701 70.6723 70.7881 71.2862 70.1806L71.2867 70.1801C71.9013 69.5732 72.3889 68.8525 72.7215 68.0593C73.0542 67.266 73.2254 66.4157 73.2254 65.557C73.2254 64.6983 73.0542 63.848 72.7215 63.0548C72.3889 62.2615 71.9013 61.5409 71.2867 60.934L71.064 60.7138C70.1389 59.779 69.5184 58.5916 69.2823 57.3049C69.0465 56.0192 69.2054 54.6931 69.7385 53.4975C70.2474 52.3257 71.0914 51.3264 72.1669 50.6223C73.2435 49.9176 74.505 49.5394 75.7962 49.5343L75.7988 49.5343L76.125 49.5343C77.8782 49.5343 79.5596 48.8458 80.7992 47.6204C82.0389 46.395 82.7353 44.733 82.7353 43C82.7353 41.2669 82.0389 39.6049 80.7992 38.3795C79.5596 37.1541 77.8782 36.4656 76.125 36.4656H75.5088L75.5062 36.4656C74.215 36.4605 72.9535 36.0823 71.8769 35.3776C70.8003 34.6728 69.9557 33.6722 69.4471 32.4991C69.4129 32.4203 69.3953 32.3356 69.3953 32.2499V32.0931C68.905 30.9298 68.7645 29.6503 68.9923 28.4084C69.2284 27.1216 69.8489 25.9343 70.774 24.9994L70.7789 24.9944L70.9965 24.7795C71.6111 24.1726 72.0989 23.4517 72.4315 22.6585C72.7642 21.8652 72.9354 21.0149 72.9354 20.1562C72.9354 19.2975 72.7642 18.4472 72.4315 17.6539C72.0989 16.8607 71.6113 16.14 70.9967 15.5332L70.9962 15.5327C70.3823 14.9251 69.6533 14.4432 68.8508 14.1143C68.0483 13.7855 67.1881 13.6162 66.3194 13.6162C65.4507 13.6162 64.5906 13.7855 63.7881 14.1143C62.9856 14.4432 62.2566 14.9251 61.6426 15.5327L61.4199 15.7529C60.4742 16.6673 59.273 17.2807 57.9713 17.514C56.6708 17.7471 55.3294 17.5901 54.1199 17.0632C52.9344 16.5602 51.9234 15.7259 51.2111 14.6626C50.4981 13.5984 50.1155 12.3514 50.1104 11.075L50.1103 11.0724V10.7499C50.1103 9.01694 49.4139 7.35491 48.1742 6.12949C46.9346 4.90407 45.2532 4.21563 43.5001 4.21563ZM37.9212 5.23521C39.4008 3.77261 41.4076 2.95093 43.5001 2.95093C45.5925 2.95093 47.5993 3.77261 49.0789 5.23521C50.5585 6.69781 51.3898 8.68152 51.3898 10.7499L51.3898 11.0699C51.3898 11.0703 51.3898 11.0707 51.3898 11.0711C51.3941 12.1004 51.7028 13.1061 52.2778 13.9643C52.853 14.8228 53.6696 15.4964 54.627 15.9021L54.6334 15.9047C55.6098 16.3307 56.6929 16.4578 57.7431 16.2696C58.7921 16.0816 59.7602 15.5875 60.5228 14.851C60.5236 14.8503 60.5244 14.8495 60.5252 14.8487L60.7375 14.6389C60.7375 14.6388 60.7374 14.639 60.7375 14.6389C61.4701 13.9139 62.3405 13.3385 63.2981 12.946C64.2559 12.5536 65.2826 12.3515 66.3194 12.3515C67.3563 12.3515 68.3829 12.5536 69.3407 12.946C70.2983 13.3384 71.1682 13.9135 71.9009 14.6384C72.6344 15.3627 73.2164 16.2229 73.6134 17.1696C74.0105 18.1164 74.2148 19.1313 74.2148 20.1562C74.2148 21.1811 74.0105 22.196 73.6134 23.1428C73.2164 24.0895 72.6344 24.9497 71.9009 25.674L71.6886 25.8838C71.6878 25.8846 71.687 25.8854 71.6862 25.8863C70.9412 26.6401 70.4414 27.597 70.2512 28.634C70.0608 29.6721 70.1894 30.7428 70.6203 31.708C70.6562 31.7884 70.6748 31.8754 70.6748 31.9633V32.1163C71.0895 33.013 71.7503 33.7778 72.5833 34.3231C73.4515 34.8915 74.4689 35.1966 75.5102 35.2009H76.125C78.2175 35.2009 80.2243 36.0226 81.7039 37.4852C83.1835 38.9478 84.0148 40.9315 84.0148 43C84.0148 45.0684 83.1835 47.0521 81.7039 48.5147C80.2243 49.9773 78.2175 50.799 76.125 50.799L75.8014 50.799C75.801 50.799 75.8006 50.799 75.8002 50.799C74.7589 50.8033 73.7415 51.1084 72.8733 51.6768C72.0048 52.2453 71.3234 53.0526 70.913 53.9991L70.9103 54.0053C70.4794 54.9705 70.3508 56.0411 70.5412 57.0792C70.7314 58.1162 71.2311 59.0731 71.9761 59.8269C71.9769 59.8277 71.9777 59.8286 71.9786 59.8294L72.1909 60.0392C72.191 60.0393 72.1908 60.0391 72.1909 60.0392C72.9243 60.7635 73.5064 61.6238 73.9034 62.5705C74.3005 63.5173 74.5048 64.5321 74.5048 65.557C74.5048 66.5819 74.3005 67.5968 73.9034 68.5436C73.5064 69.4903 72.9246 70.3503 72.1911 71.0746C71.4585 71.7996 70.5884 72.3748 69.6307 72.7672C68.6729 73.1597 67.6463 73.3617 66.6094 73.3617C65.5726 73.3617 64.5459 73.1597 63.5881 72.7672C62.6304 72.3748 61.7604 71.7996 61.0277 71.0746C61.0276 71.0745 61.0278 71.0747 61.0277 71.0746L60.8152 70.8645C60.8144 70.8637 60.8135 70.8628 60.8126 70.862C60.0501 70.1256 59.082 69.6317 58.0331 69.4436C56.9829 69.2554 55.8998 69.3825 54.9233 69.8085L54.9171 69.8112C53.9596 70.2169 53.143 70.8904 52.5678 71.7489C51.9928 72.6072 51.6841 73.6128 51.6798 74.6421C51.6798 74.6425 51.6798 74.6429 51.6798 74.6433L51.6798 75.25C51.6798 77.3184 50.8485 79.3021 49.3689 80.7647C47.8893 82.2273 45.8825 83.049 43.7901 83.049C41.6976 83.049 39.6908 82.2273 38.2112 80.7647C36.7316 79.3021 35.9003 77.3184 35.9003 75.25V74.935C35.8739 73.8784 35.5272 72.8538 34.9051 71.994C34.2816 71.1322 33.4102 70.4758 32.4042 70.1101C32.3974 70.1076 32.3907 70.105 32.384 70.1023C32.3782 70.1 32.3725 70.0976 32.3668 70.0951C31.3903 69.6692 30.3072 69.5421 29.2571 69.7303C28.208 69.9183 27.24 70.4123 26.4774 71.1487C26.4765 71.1496 26.4757 71.1504 26.4749 71.1512L26.2626 71.361C25.5299 72.0861 24.6598 72.6614 23.702 73.0539C22.7442 73.4463 21.7175 73.6484 20.6807 73.6484C19.6439 73.6484 18.6172 73.4463 17.6594 73.0539C16.7016 72.6614 15.8315 72.0861 15.0987 71.361C14.3654 70.6368 13.7836 69.7768 13.3867 68.8303C12.9896 67.8835 12.7853 66.8686 12.7853 65.8437C12.7853 64.8188 12.9896 63.8039 13.3867 62.8571C13.7837 61.9105 14.3655 61.0504 15.099 60.3261C15.099 60.3261 15.0989 60.3262 15.099 60.3261L15.3115 60.1161C15.3123 60.1153 15.3131 60.1145 15.3139 60.1137C16.0589 59.3599 16.5587 58.4029 16.7489 57.3659C16.9393 56.3278 16.8107 55.2571 16.3798 54.2919L16.377 54.2857C15.9667 53.3392 15.2853 52.532 14.4168 51.9634C13.5486 51.3951 12.5313 51.09 11.4899 51.0856C11.4895 51.0856 11.4892 51.0856 11.4888 51.0856L10.8751 51.0856C8.78258 51.0856 6.7758 50.264 5.29619 48.8014C3.81659 47.3388 2.98535 45.355 2.98535 43.2866C2.98535 41.2182 3.81659 39.2345 5.29619 37.7719C6.7758 36.3093 8.78258 35.4876 10.8751 35.4876H11.1936C12.2626 35.4614 13.2991 35.1187 14.1689 34.5038C15.0407 33.8874 15.7047 33.0261 16.0747 32.0317C16.0793 32.0192 16.0844 32.0068 16.0898 31.9946C16.5207 31.0294 16.6493 29.9587 16.4589 28.9207C16.2687 27.8837 15.7689 26.9267 15.0239 26.1729L14.8092 25.9607C14.0757 25.2364 13.4937 24.3762 13.0967 23.4294C12.6996 22.4826 12.4953 21.4678 12.4953 20.4429C12.4953 19.418 12.6996 18.4031 13.0967 17.4563C13.4937 16.5095 14.0757 15.6494 14.8092 14.9251C15.5419 14.2002 16.4118 13.6251 17.3694 13.2327C18.3272 12.8402 19.3539 12.6382 20.3907 12.6382C21.4275 12.6382 22.4542 12.8402 23.412 13.2327C24.3697 13.6251 25.2397 14.2003 25.9724 14.9253C25.9725 14.9254 25.9723 14.9252 25.9724 14.9253L26.1874 15.1378C26.95 15.8742 27.918 16.3682 28.967 16.5563C30.0172 16.7445 31.1003 16.6174 32.0768 16.1914C32.1581 16.1559 32.2461 16.1376 32.3351 16.1376H32.4899C33.397 15.7276 34.1707 15.0744 34.7223 14.251C35.2973 13.3927 35.606 12.3871 35.6103 11.3578V10.7499C35.6103 8.68152 36.4416 6.69781 37.9212 5.23521Z" fill="black"/>
</svg>
