<svg width="104" height="104" viewBox="0 0 104 104" fill="none" xmlns="http://www.w3.org/2000/svg">
<path fill-rule="evenodd" clip-rule="evenodd" d="M31.9224 17.9102C32.1064 17.5912 32.5141 17.4817 32.833 17.6657L71.833 40.1557C72.152 40.3396 72.2614 40.7473 72.0775 41.0662C71.8936 41.3852 71.4859 41.4946 71.1669 41.3107L32.1669 18.8207C31.848 18.6368 31.7385 18.2291 31.9224 17.9102Z" fill="black"/>
<path fill-rule="evenodd" clip-rule="evenodd" d="M47.3347 9.25856C48.7532 8.4399 50.3622 8.00891 52 8.00891C53.6378 8.00891 55.2468 8.4399 56.6653 9.25856C56.6657 9.25882 56.6662 9.25908 56.6666 9.25934L87 26.5927C88.4174 27.411 89.5947 28.5877 90.4138 30.0048C91.2329 31.4218 91.665 33.0293 91.6666 34.666V69.334C91.665 70.9708 91.2329 72.5783 90.4138 73.9953C89.5947 75.4123 88.4174 76.589 87 77.4074L86.9974 77.4089L56.6666 94.7407C56.6664 94.7409 56.6661 94.741 56.6659 94.7411C55.2472 95.56 53.638 95.9911 52 95.9911C50.3619 95.9911 48.7527 95.56 47.3341 94.7411C47.3338 94.741 47.3336 94.7409 47.3333 94.7407L17.0026 77.4089L17 77.4074C15.5825 76.589 14.4052 75.4123 13.5861 73.9953C12.767 72.5783 12.335 70.9708 12.3333 69.334V34.666C12.335 33.0293 12.767 31.4218 13.5861 30.0048C14.4052 28.5877 15.5825 27.411 17 26.5927L17.0026 26.5912L47.3333 9.25934C47.3338 9.25908 47.3342 9.25882 47.3347 9.25856ZM52 9.34224C50.5957 9.34224 49.2161 9.71189 48 10.414L47.9974 10.4155L17.6666 27.7474C17.6662 27.7476 17.6657 27.7479 17.6653 27.7482C16.4509 28.4496 15.4423 29.4579 14.7405 30.672C14.0385 31.8865 13.6681 33.2642 13.6666 34.667V69.333C13.6681 70.7358 14.0385 72.1135 14.7405 73.328C15.4423 74.5421 16.4508 75.5504 17.6651 76.2518C17.6656 76.2521 17.6661 76.2524 17.6666 76.2527L48 93.586C49.2161 94.2881 50.5957 94.6578 52 94.6578C53.4043 94.6578 54.7838 94.2882 56 93.586L56.0026 93.5845L86.3333 76.2527C86.3338 76.2524 86.3343 76.2521 86.3349 76.2518C87.5491 75.5504 88.5577 74.5421 89.2595 73.328C89.9615 72.1134 90.3319 70.7356 90.3333 69.3327V34.6674C90.3319 33.2645 89.9615 31.8866 89.2595 30.672C88.5576 29.4579 87.549 28.4496 86.3347 27.7482C86.3342 27.7479 86.3338 27.7476 86.3333 27.7474L56.0026 10.4155L56 10.414C54.7838 9.71189 53.4043 9.34224 52 9.34224Z" fill="black"/>
<path fill-rule="evenodd" clip-rule="evenodd" d="M13.5931 29.8261C13.7774 29.5074 14.1852 29.3985 14.504 29.5829L52.0001 51.2731L89.4963 29.5829C89.815 29.3985 90.2228 29.5074 90.4072 29.8261C90.5916 30.1448 90.4827 30.5527 90.1639 30.737L52.3339 52.6204C52.1274 52.7398 51.8728 52.7398 51.6663 52.6204L13.8363 30.737C13.5176 30.5527 13.4087 30.1448 13.5931 29.8261Z" fill="black"/>
<path fill-rule="evenodd" clip-rule="evenodd" d="M52 51.3334C52.3682 51.3334 52.6666 51.6319 52.6666 52V95.68C52.6666 96.0482 52.3682 96.3467 52 96.3467C51.6318 96.3467 51.3333 96.0482 51.3333 95.68V52C51.3333 51.6319 51.6318 51.3334 52 51.3334Z" fill="black"/>
</svg>
